<mxfile host="app.diagrams.net" modified="2022-10-17T04:54:23.251Z" agent="5.0 (Windows NT 10.0; Win64; x64) AppleWebKit/537.36 (KHTML, like Gecko) Chrome/105.0.5195.127 Safari/537.36" etag="iu01ncfsaA-bje6U8Ygq" version="20.4.1" type="github">
  <diagram id="CqjdB6uaofLq_v26wUou" name="Page-1">
    <mxGraphModel dx="1038" dy="489" grid="1" gridSize="10" guides="1" tooltips="1" connect="1" arrows="1" fold="1" page="1" pageScale="1" pageWidth="850" pageHeight="1100" math="0" shadow="0">
      <root>
        <mxCell id="0" />
        <mxCell id="1" parent="0" />
        <mxCell id="yDT2OmMPrYScsy6WdeYG-2" value="Database" style="rounded=0;whiteSpace=wrap;html=1;" vertex="1" parent="1">
          <mxGeometry x="380" y="40" width="120" height="170" as="geometry" />
        </mxCell>
        <mxCell id="yDT2OmMPrYScsy6WdeYG-3" value="Warehouse storage service" style="rounded=0;whiteSpace=wrap;html=1;" vertex="1" parent="1">
          <mxGeometry x="50" y="260" width="120" height="60" as="geometry" />
        </mxCell>
        <mxCell id="yDT2OmMPrYScsy6WdeYG-4" value="Warehouse delivery service" style="rounded=0;whiteSpace=wrap;html=1;" vertex="1" parent="1">
          <mxGeometry x="190" y="260" width="120" height="60" as="geometry" />
        </mxCell>
        <mxCell id="yDT2OmMPrYScsy6WdeYG-5" value="Order Processing Service" style="rounded=0;whiteSpace=wrap;html=1;" vertex="1" parent="1">
          <mxGeometry x="330" y="260" width="120" height="60" as="geometry" />
        </mxCell>
        <mxCell id="yDT2OmMPrYScsy6WdeYG-6" value="Orders Placement Service" style="rounded=0;whiteSpace=wrap;html=1;" vertex="1" parent="1">
          <mxGeometry x="460" y="260" width="120" height="60" as="geometry" />
        </mxCell>
        <mxCell id="yDT2OmMPrYScsy6WdeYG-7" value="Reporting Service" style="rounded=0;whiteSpace=wrap;html=1;" vertex="1" parent="1">
          <mxGeometry x="590" y="260" width="120" height="60" as="geometry" />
        </mxCell>
        <mxCell id="yDT2OmMPrYScsy6WdeYG-8" value="Couriers Service" style="rounded=0;whiteSpace=wrap;html=1;" vertex="1" parent="1">
          <mxGeometry x="260" y="340" width="120" height="60" as="geometry" />
        </mxCell>
        <mxCell id="yDT2OmMPrYScsy6WdeYG-9" value="Customers Service" style="rounded=0;whiteSpace=wrap;html=1;" vertex="1" parent="1">
          <mxGeometry x="460" y="340" width="120" height="60" as="geometry" />
        </mxCell>
        <mxCell id="yDT2OmMPrYScsy6WdeYG-12" value="" style="endArrow=classic;html=1;rounded=0;entryX=0.25;entryY=1;entryDx=0;entryDy=0;" edge="1" parent="1" target="yDT2OmMPrYScsy6WdeYG-2">
          <mxGeometry width="50" height="50" relative="1" as="geometry">
            <mxPoint x="410" y="260" as="sourcePoint" />
            <mxPoint x="450" y="240" as="targetPoint" />
          </mxGeometry>
        </mxCell>
        <mxCell id="yDT2OmMPrYScsy6WdeYG-14" value="" style="rounded=1;whiteSpace=wrap;html=1;fillColor=none;" vertex="1" parent="1">
          <mxGeometry x="20" y="240" width="770" height="200" as="geometry" />
        </mxCell>
        <mxCell id="yDT2OmMPrYScsy6WdeYG-15" value="" style="rounded=1;whiteSpace=wrap;html=1;fillColor=none;" vertex="1" parent="1">
          <mxGeometry x="30" y="10" width="750" height="210" as="geometry" />
        </mxCell>
        <mxCell id="yDT2OmMPrYScsy6WdeYG-16" value="a" style="rounded=1;whiteSpace=wrap;html=1;fillColor=none;" vertex="1" parent="1">
          <mxGeometry x="10" y="550" width="780" height="170" as="geometry" />
        </mxCell>
        <mxCell id="yDT2OmMPrYScsy6WdeYG-18" value="Desktop Apps" style="rounded=0;whiteSpace=wrap;html=1;" vertex="1" parent="1">
          <mxGeometry x="195" y="590" width="120" height="60" as="geometry" />
        </mxCell>
        <mxCell id="yDT2OmMPrYScsy6WdeYG-20" value="Mobile Apps" style="rounded=0;whiteSpace=wrap;html=1;" vertex="1" parent="1">
          <mxGeometry x="335" y="590" width="120" height="60" as="geometry" />
        </mxCell>
        <mxCell id="yDT2OmMPrYScsy6WdeYG-21" value="Web UIs" style="rounded=0;whiteSpace=wrap;html=1;" vertex="1" parent="1">
          <mxGeometry x="485" y="590" width="120" height="60" as="geometry" />
        </mxCell>
        <mxCell id="yDT2OmMPrYScsy6WdeYG-23" value="API Gateway (Authorization)" style="rounded=1;whiteSpace=wrap;html=1;" vertex="1" parent="1">
          <mxGeometry x="20" y="470" width="760" height="60" as="geometry" />
        </mxCell>
      </root>
    </mxGraphModel>
  </diagram>
</mxfile>
